<svg width="167" height="35" viewBox="0 0 167 35" fill="none" xmlns="http://www.w3.org/2000/svg">
<path d="M44.528 19.368C44.528 18.2587 44.768 17.272 45.248 16.408C45.728 15.5333 46.3947 14.856 47.248 14.376C48.112 13.8853 49.088 13.64 50.176 13.64C51.5093 13.64 52.6507 13.992 53.6 14.696C54.5493 15.4 55.184 16.36 55.504 17.576H52.496C52.272 17.1067 51.952 16.7493 51.536 16.504C51.1307 16.2587 50.6667 16.136 50.144 16.136C49.3013 16.136 48.6187 16.4293 48.096 17.016C47.5733 17.6027 47.312 18.3867 47.312 19.368C47.312 20.3493 47.5733 21.1333 48.096 21.72C48.6187 22.3067 49.3013 22.6 50.144 22.6C50.6667 22.6 51.1307 22.4773 51.536 22.232C51.952 21.9867 52.272 21.6293 52.496 21.16H55.504C55.184 22.376 54.5493 23.336 53.6 24.04C52.6507 24.7333 51.5093 25.08 50.176 25.08C49.088 25.08 48.112 24.84 47.248 24.36C46.3947 23.8693 45.728 23.192 45.248 22.328C44.768 21.464 44.528 20.4773 44.528 19.368ZM56.6355 20.52C56.6355 19.6027 56.8062 18.7973 57.1475 18.104C57.4995 17.4107 57.9742 16.8773 58.5715 16.504C59.1688 16.1307 59.8355 15.944 60.5715 15.944C61.2008 15.944 61.7502 16.072 62.2195 16.328C62.6995 16.584 63.0675 16.92 63.3235 17.336V16.072H66.0595V25H63.3235V23.736C63.0568 24.152 62.6835 24.488 62.2035 24.744C61.7342 25 61.1848 25.128 60.5555 25.128C59.8302 25.128 59.1688 24.9413 58.5715 24.568C57.9742 24.184 57.4995 23.6453 57.1475 22.952C56.8062 22.248 56.6355 21.4373 56.6355 20.52ZM63.3235 20.536C63.3235 19.8533 63.1315 19.3147 62.7475 18.92C62.3742 18.5253 61.9155 18.328 61.3715 18.328C60.8275 18.328 60.3635 18.5253 59.9795 18.92C59.6062 19.304 59.4195 19.8373 59.4195 20.52C59.4195 21.2027 59.6062 21.7467 59.9795 22.152C60.3635 22.5467 60.8275 22.744 61.3715 22.744C61.9155 22.744 62.3742 22.5467 62.7475 22.152C63.1315 21.7573 63.3235 21.2187 63.3235 20.536ZM70.7749 17.56C71.0949 17.0693 71.4949 16.6853 71.9749 16.408C72.4549 16.12 72.9882 15.976 73.5749 15.976V18.872H72.8229C72.1402 18.872 71.6282 19.0213 71.2869 19.32C70.9455 19.608 70.7749 20.12 70.7749 20.856V25H68.0389V16.072H70.7749V17.56ZM79.8586 22.68V25H78.4666C77.4746 25 76.7013 24.76 76.1466 24.28C75.592 23.7893 75.3146 22.9947 75.3146 21.896V18.344H74.2266V16.072H75.3146V13.896H78.0506V16.072H79.8426V18.344H78.0506V21.928C78.0506 22.1947 78.1146 22.3867 78.2426 22.504C78.3706 22.6213 78.584 22.68 78.8826 22.68H79.8586ZM90.5026 16.072L84.9026 29.24H81.9586L84.0066 24.696L80.3746 16.072H83.4306L85.4946 21.656L87.5426 16.072H90.5026ZM94.228 17.56C94.548 17.0693 94.948 16.6853 95.428 16.408C95.908 16.12 96.4413 15.976 97.028 15.976V18.872H96.276C95.5933 18.872 95.0813 19.0213 94.74 19.32C94.3987 19.608 94.228 20.12 94.228 20.856V25H91.492V16.072H94.228V17.56ZM109.038 13.768V15.96H104.462V18.328H107.886V20.456H104.462V25H101.726V13.768H109.038ZM111.852 15.144C111.372 15.144 110.978 15.0053 110.668 14.728C110.37 14.44 110.22 14.088 110.22 13.672C110.22 13.2453 110.37 12.8933 110.668 12.616C110.978 12.328 111.372 12.184 111.852 12.184C112.322 12.184 112.706 12.328 113.004 12.616C113.314 12.8933 113.468 13.2453 113.468 13.672C113.468 14.088 113.314 14.44 113.004 14.728C112.706 15.0053 112.322 15.144 111.852 15.144ZM113.212 16.072V25H110.476V16.072H113.212ZM120.635 15.976C121.68 15.976 122.512 16.3173 123.131 17C123.76 17.672 124.075 18.6 124.075 19.784V25H121.355V20.152C121.355 19.5547 121.2 19.0907 120.891 18.76C120.582 18.4293 120.166 18.264 119.643 18.264C119.12 18.264 118.704 18.4293 118.395 18.76C118.086 19.0907 117.931 19.5547 117.931 20.152V25H115.195V16.072H117.931V17.256C118.208 16.8613 118.582 16.552 119.051 16.328C119.52 16.0933 120.048 15.976 120.635 15.976ZM125.432 20.52C125.432 19.6027 125.603 18.7973 125.944 18.104C126.296 17.4107 126.771 16.8773 127.368 16.504C127.966 16.1307 128.632 15.944 129.368 15.944C129.998 15.944 130.547 16.072 131.016 16.328C131.496 16.584 131.864 16.92 132.12 17.336V16.072H134.856V25H132.12V23.736C131.854 24.152 131.48 24.488 131 24.744C130.531 25 129.982 25.128 129.352 25.128C128.627 25.128 127.966 24.9413 127.368 24.568C126.771 24.184 126.296 23.6453 125.944 22.952C125.603 22.248 125.432 21.4373 125.432 20.52ZM132.12 20.536C132.12 19.8533 131.928 19.3147 131.544 18.92C131.171 18.5253 130.712 18.328 130.168 18.328C129.624 18.328 129.16 18.5253 128.776 18.92C128.403 19.304 128.216 19.8373 128.216 20.52C128.216 21.2027 128.403 21.7467 128.776 22.152C129.16 22.5467 129.624 22.744 130.168 22.744C130.712 22.744 131.171 22.5467 131.544 22.152C131.928 21.7573 132.12 21.2187 132.12 20.536ZM142.276 15.976C143.321 15.976 144.153 16.3173 144.772 17C145.401 17.672 145.716 18.6 145.716 19.784V25H142.996V20.152C142.996 19.5547 142.841 19.0907 142.532 18.76C142.222 18.4293 141.806 18.264 141.284 18.264C140.761 18.264 140.345 18.4293 140.036 18.76C139.726 19.0907 139.572 19.5547 139.572 20.152V25H136.836V16.072H139.572V17.256C139.849 16.8613 140.222 16.552 140.692 16.328C141.161 16.0933 141.689 15.976 142.276 15.976ZM147.073 20.536C147.073 19.608 147.26 18.7973 147.633 18.104C148.017 17.4107 148.545 16.8773 149.217 16.504C149.9 16.1307 150.678 15.944 151.553 15.944C152.673 15.944 153.606 16.2373 154.353 16.824C155.11 17.4107 155.606 18.2373 155.841 19.304H152.929C152.684 18.6213 152.209 18.28 151.505 18.28C151.004 18.28 150.604 18.4773 150.305 18.872C150.006 19.256 149.857 19.8107 149.857 20.536C149.857 21.2613 150.006 21.8213 150.305 22.216C150.604 22.6 151.004 22.792 151.505 22.792C152.209 22.792 152.684 22.4507 152.929 21.768H155.841C155.606 22.8133 155.11 23.6347 154.353 24.232C153.596 24.8293 152.662 25.128 151.553 25.128C150.678 25.128 149.9 24.9413 149.217 24.568C148.545 24.1947 148.017 23.6613 147.633 22.968C147.26 22.2747 147.073 21.464 147.073 20.536ZM165.72 20.392C165.72 20.648 165.705 20.9147 165.673 21.192H159.481C159.523 21.7467 159.699 22.1733 160.009 22.472C160.329 22.76 160.718 22.904 161.177 22.904C161.859 22.904 162.334 22.616 162.601 22.04H165.513C165.363 22.6267 165.091 23.1547 164.697 23.624C164.313 24.0933 163.827 24.4613 163.241 24.728C162.654 24.9947 161.998 25.128 161.273 25.128C160.398 25.128 159.619 24.9413 158.937 24.568C158.254 24.1947 157.721 23.6613 157.337 22.968C156.953 22.2747 156.761 21.464 156.761 20.536C156.761 19.608 156.947 18.7973 157.321 18.104C157.705 17.4107 158.238 16.8773 158.921 16.504C159.603 16.1307 160.387 15.944 161.273 15.944C162.137 15.944 162.905 16.1253 163.577 16.488C164.249 16.8507 164.771 17.368 165.145 18.04C165.529 18.712 165.72 19.496 165.72 20.392ZM162.921 19.672C162.921 19.2027 162.761 18.8293 162.441 18.552C162.121 18.2747 161.721 18.136 161.241 18.136C160.782 18.136 160.393 18.2693 160.073 18.536C159.763 18.8027 159.571 19.1813 159.497 19.672H162.921Z" fill="white"/>
<path d="M29.8744 5.12559C26.5691 1.82027 22.1744 0 17.5 0C12.8256 0 8.4309 1.82027 5.12559 5.12559C1.82027 8.4309 0 12.8256 0 17.5C0 22.1744 1.82034 26.569 5.12559 29.8744C8.43083 33.1798 12.8256 35 17.5 35C22.1744 35 26.5691 33.1797 29.8744 29.8744C33.1797 26.5691 35 22.1744 35 17.5C35 12.8256 33.1797 8.43097 29.8744 5.12559Z" fill="#33CC95"/>
<path d="M18 7V29" stroke="white" stroke-width="2" stroke-linecap="round" stroke-linejoin="round"/>
<path d="M23 11H15.5C14.5717 11 13.6815 11.3687 13.0251 12.0251C12.3687 12.6815 12 13.5717 12 14.5C12 15.4283 12.3687 16.3185 13.0251 16.9749C13.6815 17.6313 14.5717 18 15.5 18H20.5C21.4283 18 22.3185 18.3688 22.9749 19.0251C23.6313 19.6815 24 20.5717 24 21.5C24 22.4283 23.6313 23.3185 22.9749 23.9749C22.3185 24.6313 21.4283 25 20.5 25H12" stroke="white" stroke-width="2" stroke-linecap="round" stroke-linejoin="round"/>
</svg>
